<?xml version="1.0" encoding="UTF-8" standalone="no"?>
<!-- Created with Inkscape (http://www.inkscape.org/) -->

<svg
   xmlns:dc="http://purl.org/dc/elements/1.1/"
   xmlns:cc="http://creativecommons.org/ns#"
   xmlns:rdf="http://www.w3.org/1999/02/22-rdf-syntax-ns#"
   xmlns:svg="http://www.w3.org/2000/svg"
   xmlns="http://www.w3.org/2000/svg"
   xmlns:sodipodi="http://sodipodi.sourceforge.net/DTD/sodipodi-0.dtd"
   xmlns:inkscape="http://www.inkscape.org/namespaces/inkscape"
   width="50"
   height="50"
   viewBox="0 0 13.229166 13.229167"
   version="1.1"
   id="svg821"
   inkscape:version="0.92.4 (5da689c313, 2019-01-14)"
   sodipodi:docname="share_button.svg"
   inkscape:export-filename="C:\Users\user\projects\git\r2cipe-cards\img\share_button.png"
   inkscape:export-xdpi="96"
   inkscape:export-ydpi="96">
  <defs
     id="defs815" />
  <sodipodi:namedview
     id="base"
     pagecolor="#ffffff"
     bordercolor="#666666"
     borderopacity="1.0"
     inkscape:pageopacity="0.0"
     inkscape:pageshadow="2"
     inkscape:zoom="11.2"
     inkscape:cx="12.964819"
     inkscape:cy="23.433804"
     inkscape:document-units="mm"
     inkscape:current-layer="layer1"
     showgrid="false"
     units="px"
     inkscape:window-width="1600"
     inkscape:window-height="837"
     inkscape:window-x="-8"
     inkscape:window-y="-8"
     inkscape:window-maximized="1" />
  <metadata
     id="metadata818">
    <rdf:RDF>
      <cc:Work
         rdf:about="">
        <dc:format>image/svg+xml</dc:format>
        <dc:type
           rdf:resource="http://purl.org/dc/dcmitype/StillImage" />
        <dc:title />
      </cc:Work>
    </rdf:RDF>
  </metadata>
  <g
     inkscape:label="Layer 1"
     inkscape:groupmode="layer"
     id="layer1"
     transform="translate(0,-283.77082)">
    <circle
       style="opacity:1;fill:#000000;fill-opacity:1;stroke:none;stroke-width:2.29088521;stroke-miterlimit:4;stroke-dasharray:none;stroke-opacity:1"
       id="path1368"
       cx="6.6145835"
       cy="290.38538"
       r="6.6145835" />
    <g
       id="XMLID_2_"
       transform="matrix(0.01250365,0,0,0.01250365,3.1121061,287.11589)"
       style="fill:#ffffff;fill-opacity:1">
      <path
         d="M 421.3,0 C 377.8,0 342,35.8 342,79.2 c 0,4.3 0.9,9.4 1.7,13.6 l -195.9,110 c -14.5,-15.3 -34.9,-25.6 -57.9,-25.6 -43.4,0 -79.2,34.9 -79.2,79.2 0,43.4 34.9,79.2 79.2,79.2 23,0 44.3,-10.2 58.8,-26.4 l 194.2,114.2 c 0,3.4 -0.9,6 -0.9,9.4 0,43.4 34.9,79.2 79.2,79.2 43.4,0 79.2,-34.9 79.2,-79.2 0,-43.4 -34.9,-79.2 -79.2,-79.2 -23.9,0 -46,11.1 -60.5,28.1 L 167.4,267.5 c 0.9,-3.4 0.9,-7.7 0.9,-11.1 0,-4.3 0,-8.5 -0.9,-12.8 L 364.2,132.9 c 14.5,15.3 34.9,25.6 57.9,25.6 43.4,0 79.2,-34.9 79.2,-79.2 C 500.5,35.8 464.7,0 421.3,0 Z"
         class="st0"
         id="XMLID_4_"
         inkscape:connector-curvature="0"
         style="fill:#ffffff;fill-opacity:1" />
    </g>
  </g>
  <style
     id="style4535"
     type="text/css">
	.st0{fill:#333333;}
</style>
</svg>
